<?xml version="1.0" encoding="UTF-8" standalone="no"?>
<!-- Created with Inkscape (http://www.inkscape.org/) -->

<svg
   width="100.59886mm"
   height="94.820389mm"
   viewBox="0 0 100.59886 94.820389"
   version="1.1"
   id="svg1"
   xml:space="preserve"
   inkscape:version="1.3.1 (9b9bdc1480, 2023-11-25, custom)"
   sodipodi:docname="potassco.svg"
   xmlns:inkscape="http://www.inkscape.org/namespaces/inkscape"
   xmlns:sodipodi="http://sodipodi.sourceforge.net/DTD/sodipodi-0.dtd"
   xmlns="http://www.w3.org/2000/svg"
   xmlns:svg="http://www.w3.org/2000/svg"><sodipodi:namedview
     id="namedview1"
     pagecolor="#ffffff"
     bordercolor="#000000"
     borderopacity="0.25"
     inkscape:showpageshadow="2"
     inkscape:pageopacity="0.0"
     inkscape:pagecheckerboard="0"
     inkscape:deskcolor="#d1d1d1"
     inkscape:document-units="mm"
     inkscape:zoom="1.5673413"
     inkscape:cx="28.073018"
     inkscape:cy="255.52827"
     inkscape:window-width="2494"
     inkscape:window-height="1371"
     inkscape:window-x="66"
     inkscape:window-y="32"
     inkscape:window-maximized="1"
     inkscape:current-layer="layer1" /><defs
     id="defs1" /><g
     inkscape:label="Layer 1"
     inkscape:groupmode="layer"
     id="layer1"
     transform="translate(-54.700566,-47.165303)"><path
       style="fill:#000000"
       d="m 82.301837,141.05041 -0.821158,-0.93525 v -8.1887 -8.18871 l 0.771697,-0.86407 0.771697,-0.86407 7.761116,-0.0828 c 5.179364,-0.0553 8.095379,0.0155 8.765957,0.21285 0.663114,0.19513 1.180154,0.58321 1.520364,1.14117 l 0.51553,0.84548 9.9e-4,7.7522 9.8e-4,7.7522 -0.39536,0.76455 c -0.21745,0.42051 -0.66066,0.95037 -0.98491,1.17749 l -0.589553,0.41294 h -8.248095 -8.248096 z m 25.201373,0.54753 c -0.30445,-0.21325 -0.74766,-0.79679 -0.98492,-1.29676 l -0.43136,-0.90904 v -7.44503 -7.44504 l 0.51964,-1.01859 c 0.34548,-0.67719 0.80212,-1.11706 1.3624,-1.31237 0.54061,-0.18846 3.5179,-0.29379 8.30442,-0.29379 4.49178,0 7.77638,0.10972 8.25239,0.27565 0.48166,0.16791 1.01418,0.67322 1.3624,1.2928 l 0.57167,1.01714 v 7.46462 7.46461 l -0.43137,0.90904 c -0.23725,0.49997 -0.68046,1.08351 -0.98492,1.29676 l -0.55354,0.38772 h -8.21663 -8.21664 z m 24.45091,-0.384 -0.86407,-0.77172 -0.0771,-8.0838 -0.0771,-8.0838 0.4123,-0.7973 c 0.22677,-0.43851 0.77108,-0.98283 1.2096,-1.20959 l 0.79729,-0.4123 8.0838,0.0771 8.0838,0.0771 0.77172,0.86407 0.77172,0.86407 v 8.2783 8.2783 l -0.87249,0.84565 -0.8725,0.84566 h -8.25146 -8.25146 z M 71.691094,130.77573 c -1.236927,-1.06534 -3.14233,-2.87823 -4.23423,-4.02863 -1.091899,-1.15041 -2.529355,-2.80943 -3.194345,-3.68672 -0.664991,-0.87728 -1.751143,-2.48803 -2.413673,-3.57944 -0.662529,-1.0914 -1.621349,-2.81441 -2.13071,-3.82889 -0.509362,-1.01449 -1.281718,-2.73749 -1.716348,-3.8289 -0.43463,-1.0914 -1.100346,-3.06489 -1.47937,-4.38553 -0.379023,-1.32064 -0.879986,-3.52329 -1.113252,-4.89479 -0.233265,-1.3715 -0.488126,-4.39864 -0.566359,-6.72697 l -0.142241,-4.23333 0.434167,-3.30729 c 0.238792,-1.81902 0.795955,-4.65853 1.23814,-6.31004 0.442185,-1.65151 1.104696,-3.735105 1.472245,-4.63021 0.36755,-0.895106 1.042609,-2.401371 1.500131,-3.347256 0.457523,-0.945886 1.177855,-2.315105 1.60074,-3.042709 0.422884,-0.727604 1.303162,-2.12924 1.956172,-3.114747 0.65301,-0.985506 2.283861,-3.0691 3.624112,-4.630208 1.340252,-1.561109 3.558129,-3.755135 4.928616,-4.875614 1.370487,-1.120479 3.204678,-2.537735 4.07598,-3.149458 0.871301,-0.611723 2.774809,-1.739569 4.230018,-2.506325 1.455208,-0.766756 3.726192,-1.812854 5.04663,-2.324663 1.320439,-0.511809 3.76122,-1.287131 5.423959,-1.722938 1.662739,-0.435806 4.154256,-0.941639 5.536704,-1.124072 1.382448,-0.182433 4.23995,-0.331697 6.35,-0.331697 2.11005,0 4.96755,0.149264 6.35,0.331697 1.38244,0.182433 3.87396,0.688266 5.5367,1.124072 1.66274,0.435807 4.04399,1.192101 5.29167,1.680653 1.24768,0.488553 3.43781,1.497227 4.86696,2.241498 1.42915,0.744271 3.15555,1.738352 3.83646,2.209068 0.6809,0.470716 1.95238,1.379477 2.8255,2.019469 0.87313,0.639991 3.10555,2.683052 4.96094,4.540135 l 3.37344,3.376514 v 0.945495 c 0,0.592718 -0.19744,1.142935 -0.52917,1.474663 -0.32617,0.326172 -0.88195,0.529166 -1.44879,0.529166 h -0.91963 l -0.86631,-0.985207 c -0.47647,-0.541865 -1.69975,-1.829428 -2.7184,-2.861252 -1.01864,-1.031824 -2.44739,-2.357941 -3.175,-2.946926 -0.7276,-0.588986 -2.29944,-1.729779 -3.49298,-2.535097 -1.19353,-0.805318 -3.44911,-2.087326 -5.01238,-2.848908 -1.56328,-0.761582 -3.85396,-1.726649 -5.0904,-2.144595 -1.23645,-0.417945 -3.75853,-1.054413 -5.60463,-1.414373 -1.8461,-0.35996 -4.65107,-0.731916 -6.23328,-0.826569 -1.68747,-0.10095 -4.079938,-0.04286 -5.787158,0.140517 -1.60073,0.171937 -4.160574,0.594769 -5.688542,0.939626 -1.527969,0.344858 -3.790157,0.986114 -5.027084,1.425015 -1.236927,0.4389 -2.903803,1.09899 -3.704167,1.466867 -0.800365,0.367877 -2.050521,1.010922 -2.778125,1.428989 -0.727605,0.418067 -2.023471,1.22529 -2.879704,1.793829 -0.856233,0.56854 -1.987326,1.320893 -2.513542,1.671897 -0.526215,0.351003 -2.400268,2.07741 -4.164561,3.836458 -1.764294,1.759049 -3.4907,3.624126 -3.836459,4.144615 -0.345759,0.52049 -1.245108,1.862011 -1.998553,2.981158 -0.753446,1.119147 -1.958516,3.253136 -2.677934,4.742197 -0.719418,1.489062 -1.678126,3.838476 -2.130462,5.220926 -0.452336,1.38245 -1.089749,3.82323 -1.416473,5.42396 l -0.594044,2.91042 -0.0049,5.15937 -0.0049,5.15938 0.596649,2.95083 c 0.328156,1.62297 0.960596,4.06375 1.405421,5.42396 0.444825,1.36022 1.38927,3.69485 2.098767,5.18806 0.709497,1.49322 1.981278,3.75465 2.82618,5.0254 0.844902,1.27075 2.126569,3.02559 2.848149,3.89965 0.721579,0.87405 1.847347,2.15971 2.501704,2.85702 0.654358,0.69731 2.103352,1.98746 3.219986,2.867 1.116634,0.87954 2.163758,1.89219 2.326941,2.25034 0.163184,0.35815 0.296698,0.80812 0.296698,0.99993 0,0.1918 -0.246767,0.66245 -0.548371,1.04588 l -0.54837,0.69714 -0.972984,-0.006 -0.972984,-0.006 z m 12.017717,-13.57711 c -0.302496,-0.0598 -0.927574,-0.45359 -1.389062,-0.8751 l -0.83907,-0.76637 v -8.37543 -8.37543 l 0.784304,-0.73265 c 0.431367,-0.40295 1.160625,-0.80791 1.620573,-0.8999 0.459948,-0.092 3.980367,-0.16725 7.823153,-0.16725 h 6.986884 l 0.91175,0.38095 c 0.501467,0.20952 1.152037,0.77507 1.445717,1.25677 l 0.53398,0.87582 5.7e-4,7.54062 5.8e-4,7.54063 -0.46261,0.92604 c -0.26466,0.52979 -0.85886,1.12399 -1.38865,1.38865 l -0.926042,0.46261 -7.276042,-0.0356 c -4.001823,-0.0196 -7.523539,-0.0845 -7.826035,-0.14434 z m 24.230199,-0.28265 c -0.52979,-0.26466 -1.12399,-0.85886 -1.38865,-1.38865 l -0.46261,-0.92604 v -7.40834 -7.40833 l 0.46261,-0.92604 c 0.26466,-0.52979 0.85886,-1.12399 1.38865,-1.38865 l 0.92604,-0.46261 h 7.40834 7.40833 l 0.92604,0.46261 c 0.52979,0.26466 1.12399,0.85886 1.38865,1.38865 l 0.46261,0.92604 v 7.40833 7.40834 l -0.46261,0.92604 c -0.26466,0.52979 -0.85886,1.12399 -1.38865,1.38865 l -0.92604,0.46261 h -7.40833 -7.40834 z m 25.00313,0.0924 c -0.43657,-0.1927 -1.03188,-0.61705 -1.32292,-0.943 l -0.52917,-0.59262 -0.0847,-7.71175 c -0.0572,-5.21186 0.0125,-8.04001 0.21518,-8.72437 l 0.29986,-1.01262 1.10774,-0.50293 1.10774,-0.50292 7.04453,-0.006 c 3.87449,-0.003 7.42085,0.0694 7.8808,0.16144 0.45995,0.092 1.18921,0.49695 1.62057,0.8999 l 0.78431,0.73265 v 8.37543 8.37543 l -0.82289,0.75159 c -0.45258,0.41337 -1.18184,0.82338 -1.62057,0.91113 -0.43873,0.0877 -3.96773,0.15487 -7.84222,0.14918 l -7.04453,-0.0104 z M 83.168271,92.12838 C 82.713999,91.93067 82.148452,91.49212 81.9115,91.15383 l -0.430821,-0.61509 v -8.24809 -8.248099 l 0.935248,-0.821158 0.935248,-0.821159 h 8.134006 8.134006 l 0.615983,0.431454 c 0.3388,0.2373 0.78201,0.828788 0.98492,1.314419 l 0.36892,0.882964 v 7.407859 7.40785 l -0.43005,0.90184 c -0.25183,0.52809 -0.8038,1.08006 -1.331896,1.33189 l -0.901837,0.43006 -7.465503,-0.0104 -7.465504,-0.0104 z m 24.556379,-0.15576 c -0.4817,-0.29368 -1.04725,-0.94426 -1.25677,-1.44572 l -0.38095,-0.91175 v -6.98689 c 0,-3.84278 0.0753,-7.363201 0.16725,-7.823149 0.092,-0.459948 0.49695,-1.189206 0.8999,-1.620573 l 0.73265,-0.784304 h 8.37543 8.37543 l 0.75159,0.822885 c 0.41337,0.452586 0.82338,1.181844 0.91113,1.620573 0.0877,0.438728 0.15935,3.967728 0.15912,7.842218 l -4.1e-4,7.04453 -0.46261,0.92605 c -0.26466,0.52979 -0.85886,1.12399 -1.38865,1.38865 l -0.92604,0.46261 -7.54063,-5.8e-4 -7.54062,-5.8e-4 z m 28.96068,-0.58853 c -0.35856,-0.32742 -0.83755,-1.19063 -1.06441,-1.91823 -0.22687,-0.7276 -0.70567,-2.45401 -1.06402,-3.83646 -0.35834,-1.38245 -1.07662,-4.09983 -1.59617,-6.03862 -0.51955,-1.938801 -0.94463,-3.906606 -0.94463,-4.372904 0,-0.466299 0.1847,-1.111512 0.41044,-1.433807 0.22574,-0.322295 0.65939,-0.719225 0.96366,-0.882066 0.30428,-0.162841 3.00684,-0.951099 6.00571,-1.751684 2.99886,-0.800585 6.31452,-1.671026 7.36814,-1.934313 l 1.91566,-0.478704 0.93111,0.257093 c 0.51211,0.141401 1.11735,0.541326 1.34497,0.888721 0.22762,0.347395 0.7527,1.859535 1.16684,3.36031 0.41414,1.500776 1.06826,3.919308 1.4536,5.374514 0.38535,1.45521 0.93071,3.43823 1.21191,4.4067 0.28121,0.96848 0.51129,2.13108 0.51129,2.58357 0,0.5624 -0.27208,1.11487 -0.8599,1.74605 l -0.85989,0.92335 -1.98438,0.50786 c -1.0914,0.27932 -3.59172,0.94107 -5.55625,1.47055 -1.96453,0.52948 -4.22197,1.13385 -5.01652,1.34304 -0.79456,0.20919 -1.94878,0.38034 -2.56494,0.38034 -0.79222,0 -1.31119,-0.17433 -1.77222,-0.59531 z m 7.89847,-4.71073 c 1.60073,-0.4197 3.42272,-0.8921 4.04886,-1.04978 0.62614,-0.15767 1.38169,-0.52994 1.67901,-0.82726 l 0.54059,-0.54058 -0.11314,-0.96681 c -0.0622,-0.53175 -0.55332,-2.61646 -1.09132,-4.63269 -0.53799,-2.016233 -1.14918,-3.996579 -1.3582,-4.400773 -0.20902,-0.404193 -0.67071,-0.807853 -1.02598,-0.89702 -0.36415,-0.0914 -1.72441,0.127546 -3.11809,0.50188 -1.35968,0.365202 -3.42464,0.910762 -4.58881,1.212355 -1.16417,0.301593 -2.27881,0.682741 -2.47699,0.846995 -0.19818,0.164254 -0.44794,0.535484 -0.55502,0.824955 -0.12027,0.325124 0.18929,1.997438 0.80983,4.374808 0.55248,2.11668 1.17051,4.32475 1.3734,4.90684 0.21122,0.60603 0.63944,1.19513 1.00198,1.37843 0.34821,0.17606 0.93244,0.25522 1.29829,0.17593 0.36585,-0.0793 1.97487,-0.48758 3.57559,-0.90728 z"
       id="path1" /></g></svg>
