<svg
   version="1.1"
   id="Layer_1"
   x="0px"
   y="0px"
   viewBox="0 0 98.1 118"
   style="enable-background:new 0 0 98.1 118;"
   xml:space="preserve"
   sodipodi:docname="Svelte_Logo.svg"
   inkscape:version="1.3.1 (9b9bdc1480, 2023-11-25, custom)"
   xmlns:inkscape="http://www.inkscape.org/namespaces/inkscape"
   xmlns:sodipodi="http://sodipodi.sourceforge.net/DTD/sodipodi-0.dtd"
   xmlns="http://www.w3.org/2000/svg"
   xmlns:svg="http://www.w3.org/2000/svg"><defs
   id="defs2" /><sodipodi:namedview
   id="namedview2"
   pagecolor="#ffffff"
   borderopacity="0.25"
   inkscape:showpageshadow="2"
   inkscape:pageopacity="0.0"
   inkscape:pagecheckerboard="0"
   inkscape:deskcolor="#d1d1d1"
   inkscape:zoom="6.340469"
   inkscape:cx="49.049999"
   inkscape:cy="33.830305"
   inkscape:window-width="2494"
   inkscape:window-height="1371"
   inkscape:window-x="66"
   inkscape:window-y="32"
   inkscape:window-maximized="1"
   inkscape:current-layer="Layer_1" />
<path
   id="path1"
   class="st0"
   d="M 62.832031 0 C 56.157624 -0.18632794 49.449604 1.4867225 43.599609 5.1992188 L 16.099609 22.800781 C 8.5996169 27.500777 3.4003891 35.200399 1.9003906 43.900391 C 0.60039192 51.200383 1.6992223 58.699225 5.1992188 65.199219 C 2.7992212 68.799215 1.1999993 72.800004 0.5 77 C -1.0999984 85.899991 0.99922395 95.100398 6.1992188 102.40039 C 17.199208 118.10037 38.800406 122.70077 54.400391 112.80078 L 81.900391 95.300781 C 89.400383 90.600786 94.599611 82.89921 96.099609 74.199219 C 97.399608 66.899226 96.300778 59.400384 92.800781 52.900391 C 95.200779 49.300394 96.800001 45.299605 97.5 41.099609 C 99.199998 32.099618 97.100776 22.899602 91.800781 15.599609 C 84.988288 5.7871192 73.956044 0.31054656 62.832031 0 z M 62.119141 13.40625 C 69.343718 13.253272 76.275004 16.707037 80.5 22.800781 C 83.699997 27.200777 84.899999 32.699615 84 38.099609 C 83.8 38.999608 83.600781 39.79922 83.300781 40.699219 L 82.800781 42.300781 L 81.400391 41.300781 C 78.100394 38.900784 74.499605 37.100389 70.599609 35.900391 L 69.599609 35.599609 L 69.699219 34.599609 C 69.799219 33.199611 69.399609 31.699999 68.599609 30.5 C 66.999611 28.200002 64.199997 27.200391 61.5 27.900391 C 60.900001 28.10039 60.300781 28.29961 59.800781 28.599609 L 32.400391 46.099609 C 31.000392 46.999608 30.100781 48.300392 29.800781 49.900391 C 29.500782 51.500389 29.900782 53.200001 30.800781 54.5 C 32.40078 56.799998 35.200393 57.799609 37.900391 57.099609 C 38.50039 56.89961 39.09961 56.70039 39.599609 56.400391 L 50.099609 49.699219 C 51.799608 48.59922 53.699221 47.799218 55.699219 47.199219 C 64.59921 44.899221 73.899615 48.400398 79.099609 55.900391 C 82.299606 60.300386 83.499608 65.799224 82.599609 71.199219 C 81.69961 76.399214 78.499995 81.100393 74 83.900391 L 46.5 101.40039 C 44.800002 102.50039 42.900389 103.30039 40.900391 103.90039 C 32.0004 106.20039 22.699995 102.69921 17.5 95.199219 C 14.300003 90.799223 13.100001 85.300385 14 79.900391 C 14.2 79.000392 14.39961 78.20078 14.599609 77.300781 L 15.099609 75.699219 L 16.5 76.699219 C 19.799997 79.099216 23.400785 80.899611 27.300781 82.099609 L 28.300781 82.400391 L 28.199219 83.400391 C 28.099219 84.800389 28.500782 86.300001 29.300781 87.5 C 30.90078 89.799998 33.700393 90.899218 36.400391 90.199219 C 37.00039 89.999219 37.59961 89.8 38.099609 89.5 L 65.5 72 C 66.899999 71.100001 67.79961 69.799217 68.099609 68.199219 C 68.399609 66.59922 67.999608 64.899608 67.099609 63.599609 C 65.499611 61.299612 62.699997 60.300001 60 61 C 59.400001 61.2 58.800781 61.399219 58.300781 61.699219 L 47.800781 68.400391 C 46.100783 69.50039 44.199217 70.300782 42.199219 70.800781 C 33.299228 73.100779 24.000776 69.599602 18.800781 62.099609 C 15.700784 57.699614 14.400392 52.200776 15.400391 46.800781 C 16.30039 41.600786 19.500004 36.899607 24 34.099609 L 51.5 16.599609 C 53.199998 15.49961 55.099611 14.699609 57.099609 14.099609 C 58.768358 13.66836 60.45193 13.441553 62.119141 13.40625 z "/>
</svg>
